inDegrees=yes
name=ik_lifting_orientations
DataType=double
version=3
OpenSimVersion=4.5-2024-01-10-34fd6af
endheader
time	pelvis_tilt	pelvis_list	pelvis_rotation	pelvis_tx	pelvis_ty	pelvis_tz	hip_flexion_r	hip_adduction_r	hip_rotation_r	knee_angle_r	knee_angle_r_beta	ankle_angle_r	subtalar_angle_r	mtp_angle_r	hip_flexion_l	hip_adduction_l	hip_rotation_l	knee_angle_l	knee_angle_l_beta	ankle_angle_l	subtalar_angle_l	mtp_angle_l	lumbar_extension	lumbar_bending	lumbar_rotation	arm_flex_r	arm_add_r	arm_rot_r	elbow_flex_r	pro_sup_r	wrist_flex_r	wrist_dev_r	arm_flex_l	arm_add_l	arm_rot_l	elbow_flex_l	pro_sup_l	wrist_flex_l	wrist_dev_l
2.2	-1.596433548049947	-2.496293646294757	-74.57445650804033	0	0.9399999998679526	0	45.42416804262975	-10.09851621238103	0	60.70424819832798	1.059489001008659	-5.024982732265782	0	0	45.42416804262975	-10.09851621238103	0	60.70424819832798	1.059489001008659	-5.024982732265782	0	0	9.765176841423518	-0.02151941109106038	-9.466983024968748	102.5504006659849	11.8845165420389	18.09202225383439	24.47031272979834	0.01327637871557053	0	0	0	-12.43849792133795	0	89.99792672218754	0.01327637871557053	0	0
2.21	-1.255619025042561	-2.289226885890953	-75.97953465823063	0	0.9399999998679526	0	45.42404940615098	-10.09842129654677	0	60.70409190117805	1.059486273108781	-5.024951423692422	0	0	45.42404940615098	-10.09842129654677	0	60.70409190117805	1.059486273108781	-5.024951423692422	0	0	10.29280840432899	-0.3789575915335712	-7.794320088019115	102.8079824881665	11.93485473133599	18.15331662830588	22.45137364350611	0.01327376376783177	0	0	0	-12.43886779494174	0	89.99792711260295	0.01327376376783177	0	0
2.22	-0.8880803811618736	-2.131911652163538	-77.3879242495061	0	0.9399999998679526	0	45.4239021864631	-10.09830284575981	0	60.70389889221258	1.059482904466848	-5.024912314529102	0	0	45.4239021864631	-10.09830284575981	0	60.70389889221258	1.059482904466848	-5.024912314529102	0	0	10.82627132132192	-0.781234998950423	-6.048174514385079	103.0712061278316	11.79224508882464	18.20151542321879	20.24355981984308	0.01327052474344494	0	0	0	-12.43932522593938	0	89.99792759619392	0.01327052474344494	0	0
2.23	-0.6174942708395692	-1.785633993224865	-78.73820407252593	0	0.9399999998679526	0	45.42380303973417	-10.09822369093479	0	60.70376818779636	1.059480623244438	-5.024886224401292	0	0	45.42380303973417	-10.09822369093479	0	60.70376818779636	1.059480623244438	-5.024886224401292	0	0	11.66957024626231	-1.094866326233195	-4.430374738948984	103.4808207115449	11.6413842972375	18.01426056647256	18.41339452962427	0.01326833854826732	0	0	0	-12.43963454052025	0	89.99792792259591	0.01326833854826732	0	0
2.24	-0.3128881884051554	-1.323482792022982	-80.57546893933082	0	0.9399999998679526	0	45.42366467229974	-10.098112264187	0	60.70358707698195	1.059477462264416	-5.024849439064554	0	0	45.42366467229974	-10.098112264187	0	60.70358707698195	1.059477462264416	-5.024849439064554	0	0	12.43029004935046	-1.346249384929406	-2.639481484841814	103.9772816498982	11.58234837018099	17.80356160355072	16.89901385190855	0.01326529581917033	0	0	0	-12.44006405104624	0	89.99792837687973	0.01326529581917033	0	0
2.25	0.1199019006222412	-0.9402785875507328	-82.76270308491254	0	0.9399999998679526	0	45.42356626814753	-10.09803341858001	0	60.70345782338361	1.059475206363554	-5.024823439535235	0	0	45.42356626814753	-10.09803341858001	0	60.70345782338361	1.059475206363554	-5.024823439535235	0	0	13.09143275247964	-1.568657548339251	-0.4282040802112128	104.2223435654849	11.33309934331356	17.70605055918497	15.57095251124798	0.01326312881962502	0	0	0	-12.44037030441967	0	89.99792870041588	0.01326312881962502	0	0
2.26	0.5460819536143469	-0.5980469135504605	-84.70865208581472	0	0.9399999998679526	0	45.42346179612937	-10.09795011989464	0	60.70332013432881	1.059472803236204	-5.02479600198332	0	0	45.42346179612937	-10.09795011989464	0	60.70332013432881	1.059472803236204	-5.02479600198332	0	0	13.90317236850377	-1.797852393618476	1.555412041579878	104.2370921416895	11.31026299345787	17.4571155726238	14.65802559800787	0.01326082504148206	0	0	0	-12.44069625784146	0	89.99792904437325	0.01326082504148206	0	0
2.27	0.8519904842905753	-0.1553749040394419	-86.05880780310362	0	0.9399999998679526	0	45.42335906906636	-10.09786826765303	0	60.70318472995368	1.059470439984037	-5.024769048077697	0	0	45.42335906906636	-10.09786826765303	0	60.70318472995368	1.059470439984037	-5.024769048077697	0	0	14.78479212293703	-2.011629349511747	2.754121389003865	104.2988254090602	11.55199075223381	17.19414662100771	14.1144790028026	0.01325855952289876	0	0	0	-12.4410168185427	0	89.99792938261839	0.01325855952289876	0	0
2.28	1.209211820001369	0.1229291290716123	-87.35947937934893	0	0.9399999998679526	0	45.42322675050938	-10.09776199711815	0	60.70301147251288	1.059467416071241	-5.024734003267463	0	0	45.42322675050938	-10.09776199711815	0	60.70301147251288	1.059467416071241	-5.024734003267463	0	0	15.33557109166217	-2.216990015439787	4.08396106054502	104.1309485373235	11.39239462567578	17.25778126280119	13.70654824067599	0.01325564873571133	0	0	0	-12.44142780258445	0	89.99792981720306	0.01325564873571133	0	0
2.29	1.745958204945311	0.41433921157035	-89.54920986817292	0	0.9399999998679526	0	45.42311234809543	-10.09767106676025	0	60.70286054468308	1.059464781883678	-5.024704084609505	0	0	45.42311234809543	-10.09767106676025	0	60.70286054468308	1.059464781883678	-5.024704084609505	0	0	15.95128330875038	-2.301941210750568	6.293171936245154	104.1786480189504	11.9851379811871	17.51178937606299	12.62408729906872	0.01325312452778134	0	0	0	-12.44178509392633	0	89.99793019407092	0.01325312452778134	0	0
2.3	2.369999584821059	0.5734196969947198	-92.21928080254756	0	0.9399999998679526	0	45.42296138518386	-10.09755037507217	0	60.70266240711268	1.059461323730703	-5.024664335612961	0	0	45.42296138518386	-10.09755037507217	0	60.70266240711268	1.059461323730703	-5.024664335612961	0	0	16.61300360665242	-2.361202859844419	9.148251342183958	104.4246565139314	12.95464106809293	17.98161858156891	11.01777987080517	0.01324980006141657	0	0	0	-12.44225488146302	0	89.9979306904185	0.01324980006141657	0	0
2.31	3.024443188635842	0.5922047371415723	-94.90085857708172	0	0.9399999998679526	0	45.42281041762006	-10.0974298283165	0	60.70246418684962	1.059457864134468	-5.024624651520692	0	0	45.42281041762006	-10.0974298283165	0	60.70246418684962	1.059457864134468	-5.024624651520692	0	0	17.16445117964203	-2.389126288341937	11.83169974072138	104.7251828055245	14.18244215707125	18.35670473298503	9.336516707085631	0.01324647473867314	0	0	0	-12.44272486885064	0	89.99793118689392	0.01324647473867314	0	0
2.32	3.604772623693377	0.810193588575298	-96.98455708676099	0	0.9399999998679526	0	45.42261177614349	-10.09727062069592	0	60.70220431073757	1.059453328440666	-5.02457221335026	0	0	45.42261177614349	-10.09727062069592	0	60.70220431073757	1.059453328440666	-5.02457221335026	0	0	17.78748097510291	-2.374438741487031	14.09614038522258	104.6034128948571	14.39027320158474	18.79332035273735	8.428506908052315	0.01324210505366222	0	0	0	-12.44334176135611	0	89.99793183929411	0.01324210505366222	0	0
2.33	4.161322344090655	1.018710610757052	-99.08767808241873	0	0.9399999998679526	0	45.42241247731785	-10.09711085739105	0	60.70194381176339	1.059448781875868	-5.024519603578595	0	0	45.42241247731785	-10.09711085739105	0	60.70194381176339	1.059448781875868	-5.024519603578595	0	0	18.30040398134714	-2.357697867072076	16.19842305537004	104.3204760647223	14.32262109562404	19.16681219794782	8.489191053046536	0.01323772201200074	0	0	0	-12.44396038883452	0	89.9979324936885	0.01323772201200074	0	0
2.34	4.632029630300881	1.418285571567884	-100.6143054143947	0	0.9399999998679526	0	45.42222830326335	-10.09696408776115	0	60.70170215171763	1.059444564112399	-5.024471341125326	0	0	45.42222830326335	-10.09696408776115	0	60.70170215171763	1.059444564112399	-5.024471341125326	0	0	19.16522618989037	-2.33227415855651	17.85921219187197	103.7934588794605	14.25140126161673	19.33565314256313	8.703791186393177	0.01323366512563105	0	0	0	-12.44453373603825	0	89.9979330993874	0.01323366512563105	0	0
2.35	5.013312793391732	1.689133289202137	-101.6632221751752	0	0.9399999998679526	0	45.42210504350891	-10.09686572852374	0	60.70154068675227	1.059441746017127	-5.024438995263465	0	0	45.42210504350891	-10.09686572852374	0	60.70154068675227	1.059441746017127	-5.024438995263465	0	0	19.86205542646388	-2.358800228026391	19.03753279808676	102.8618314542462	13.76223424502631	19.6190168784725	9.243063285636094	0.01323095156215708	0	0	0	-12.44491704299895	0	89.99793350452627	0.01323095156215708	0	0
2.36	5.109757635229952	1.822829171914913	-101.9547864183246	0	0.9399999998679526	0	45.42196579299373	-10.09675434167927	0	60.70135872123038	1.059438570119645	-5.024402354580423	0	0	45.42196579299373	-10.09675434167927	0	60.70135872123038	1.059438570119645	-5.024402354580423	0	0	20.28790855774297	-2.362005361191394	19.6063008675123	101.8839547715389	13.100114326791	19.95299315563953	9.905490930104071	0.01322788866315596	0	0	0	-12.44534936287838	0	89.99793396182145	0.01322788866315596	0	0
2.37	5.297049141597674	2.014697124378318	-102.3557056440075	0	0.9399999998679526	0	45.42186468453861	-10.09667400674782	0	60.70122594942737	1.059436252814528	-5.024375966841053	0	0	45.42186468453861	-10.09667400674782	0	60.70122594942737	1.059436252814528	-5.024375966841053	0	0	20.78479512097887	-2.390132484181714	20.2257992385992	101.4449795209955	12.64411753863114	19.66872317599938	9.957597165279836	0.01322566036575513	0	0	0	-12.44566439713733	0	89.99793429450942	0.01322566036575513	0	0
2.38	5.462582262642947	2.150321890349202	-102.8239146562705	0	0.9399999998679526	0	45.42172408404105	-10.09656249138466	0	60.70104119962276	1.059433028322146	-5.02433935866716	0	0	45.42172408404105	-10.09656249138466	0	60.70104119962276	1.059433028322146	-5.02433935866716	0	0	21.40828131502347	-2.248656548920303	20.91152714904372	100.8328896162571	12.54406599166838	19.85180415366023	10.08972943059591	0.01322256069760841	0	0	0	-12.44610272890042	0	89.99793475729435	0.01322256069760841	0	0
2.39	5.74854316908553	2.321795522209118	-103.6979629879325	0	0.9399999998679526	0	45.42154001666936	-10.09641687162705	0	60.70079894536458	1.059428800187713	-5.02429158494047	0	0	45.42154001666936	-10.09641687162705	0	60.70079894536458	1.059428800187713	-5.02429158494047	0	0	21.934069345662	-2.101329272129343	21.94449552127627	100.400809722139	12.50771214644955	20.03303792712087	10.21804846046952	0.01321849995286004	0	0	0	-12.4466772995451	0	89.99793536356928	0.01321849995286004	0	0
2.4	6.102291653044762	2.537467833780749	-105.0592300694565	0	0.9399999998679526	0	45.42142088554029	-10.09632198658816	0	60.70064310313911	1.059426080227765	-5.024260422233808	0	0	45.42142088554029	-10.09632198658816	0	60.70064310313911	1.059426080227765	-5.024260422233808	0	0	21.98307203526456	-2.007262743411023	23.23968435545042	100.4627258068416	12.8937258311346	20.60837958749056	9.585562315947387	0.01321587772643436	0	0	0	-12.44704760610608	0	89.99793575507144	0.01321587772643436	0	0
2.41	6.483601901073308	2.725236579343315	-106.4971924999865	0	0.9399999998679526	0	45.42130708084185	-10.09623151110007	0	60.70049407614993	1.05942347921613	-5.02423072272279	0	0	45.42130708084185	-10.09623151110007	0	60.70049407614993	1.05942347921613	-5.02423072272279	0	0	22.19316406903049	-1.855570057715169	24.80521647765589	100.2610835479529	12.69008180308054	21.10643422949095	9.094450731745047	0.01321337160429506	0	0	0	-12.44740164627793	0	89.99793612923908	0.01321337160429506	0	0
2.42	6.621385482330082	2.871564364840209	-106.9758523430481	0	0.9399999998679526	0	45.42116612890367	-10.09611900923723	0	60.70031017591772	1.059420269551583	-5.024193770708145	0	0	45.42116612890367	-10.09611900923723	0	60.70031017591772	1.059420269551583	-5.024193770708145	0	0	22.6432100356356	-1.755403093808963	25.55802211949621	99.22434210674837	11.74337715205029	21.26642038108208	9.072008109670548	0.01321027186362363	0	0	0	-12.44783903587	0	89.9979365920348	0.01321027186362363	0	0
2.43	6.761199546281683	3.021336260140773	-107.4390866890836	0	0.9399999998679526	0	45.42103901153252	-10.09601772947727	0	60.70014418331194	1.059417372434078	-5.024160522194578	0	0	45.42103901153252	-10.09601772947727	0	60.70014418331194	1.059417372434078	-5.024160522194578	0	0	23.29260842800118	-1.652363891265451	26.10177231558189	97.73693829024793	10.89850257907933	21.3226174930119	9.479049872385945	0.01320747524442921	0	0	0	-12.44823377819844	0	89.99793700957403	0.01320747524442921	0	0
